<?xml version="1.0" encoding="UTF-8" standalone="no"?>
<svg width="21px" height="21px" viewBox="0 0 21 21" version="1.1" xmlns="http://www.w3.org/2000/svg" xmlns:xlink="http://www.w3.org/1999/xlink" xmlns:sketch="http://www.bohemiancoding.com/sketch/ns">
    <!-- Generator: Sketch Beta 3.4 (15138) - http://www.bohemiancoding.com/sketch -->
    <title>product-hunt-logo-orange</title>
    <desc>Created with Sketch Beta.</desc>
    <defs></defs>
    <g id="Page-1" stroke="none" stroke-width="1" fill="none" fill-rule="evenodd" sketch:type="MSPage">
        <g id="My-screen" sketch:type="MSArtboardGroup" transform="translate(-778.000000, -416.000000)">
            <g id="TubeList-is-a-new-wa-+-TubeList" sketch:type="MSLayerGroup" transform="translate(570.000000, 412.000000)">
                <g id="Rectangle-1-+-Product-Design-+-product-hunt-logo-orange" transform="translate(90.000000, 0.000000)" sketch:type="MSShapeGroup">
                    <g id="product-hunt-logo-orange" transform="translate(118.000000, 4.000000)">
                        <path d="M21,10.5 C21,16.298975 16.298975,21 10.5,21 C4.701025,21 0,16.298975 0,10.5 C0,4.701025 4.701025,0 10.5,0 C16.298975,0 21,4.701025 21,10.5" id="Fill-1" fill="#EEEEEE"></path>
                        <path d="M11.9,10.499965 L11.9,10.5000525 L8.925,10.5000525 L8.925,7.3500525 L11.9,7.3500525 L11.9,7.349965 C12.7698375,7.349965 13.475,8.0551275 13.475,8.924965 C13.475,9.7948025 12.7698375,10.499965 11.9,10.499965 M11.9,5.249965 L11.9,5.2500525 L6.825,5.249965 L6.825,15.749965 L8.925,15.749965 L8.925,12.6000525 L11.9,12.6000525 L11.9,12.599965 C13.92965,12.599965 15.575,10.954615 15.575,8.924965 C15.575,6.895315 13.92965,5.249965 11.9,5.249965" id="Fill-3" fill="#FFFFFF"></path>
                    </g>
                </g>
            </g>
        </g>
    </g>
</svg>