<?xml version="1.0" encoding="UTF-8" standalone="no"?>
<svg width="120px" height="95px" viewBox="0 0 120 95" version="1.1" xmlns="http://www.w3.org/2000/svg" xmlns:xlink="http://www.w3.org/1999/xlink" xmlns:sketch="http://www.bohemiancoding.com/sketch/ns">
    <!-- Generator: Sketch Beta 3.4 (15138) - http://www.bohemiancoding.com/sketch -->
    <title>Fill 1</title>
    <desc>Created with Sketch Beta.</desc>
    <defs></defs>
    <g id="Page-1" stroke="none" stroke-width="1" fill="none" fill-rule="evenodd" sketch:type="MSPage">
        <g id="Medium-logo" sketch:type="MSLayerGroup" fill="#EEEEEE">
            <path d="M120,14 L115.254,14 C113.492,14 111,16.542 111,18.169 L111,77.15 C111,78.779 113.492,81 115.254,81 L120,81 L120,95 L77,95 L77,81 L86,81 L86,19 L85.559,19 L64.542,95 L48.271,95 L27.525,19 L27,19 L27,81 L36,81 L36,95 L0,95 L0,81 L4.61,81 C6.508,81 9,78.779 9,77.15 L9,18.169 C9,16.542 6.508,14 4.61,14 L0,14 L0,0 L45.016,0 L59.796,55 L60.203,55 L75.119,0 L120,0 L120,14" id="Fill-1" sketch:type="MSShapeGroup"></path>
        </g>
    </g>
</svg>